<svg width="38" height="39" viewBox="0 0 38 39" fill="none" xmlns="http://www.w3.org/2000/svg">
<path d="M15.8333 22.1L25.175 12.5125C25.4653 12.2146 25.8347 12.0656 26.2833 12.0656C26.7319 12.0656 27.1014 12.2146 27.3917 12.5125C27.6819 12.8104 27.8271 13.1896 27.8271 13.65C27.8271 14.1104 27.6819 14.4896 27.3917 14.7875L16.9417 25.5125C16.625 25.8375 16.2556 26 15.8333 26C15.4111 26 15.0417 25.8375 14.725 25.5125L10.6083 21.2875C10.3181 20.9896 10.1729 20.6104 10.1729 20.15C10.1729 19.6896 10.3181 19.3104 10.6083 19.0125C10.8986 18.7146 11.2681 18.5656 11.7167 18.5656C12.1653 18.5656 12.5347 18.7146 12.825 19.0125L15.8333 22.1Z" fill="black"/>
</svg>
