<svg width="30" height="29" viewBox="0 0 30 29" fill="none" xmlns="http://www.w3.org/2000/svg">
<g clip-path="url(#clip0_2_103)">
<path d="M19.375 16.9167H18.3875L18.0375 16.5904C19.3048 15.1694 20.0014 13.3553 20 11.4792C20 9.92576 19.5235 8.40724 18.6307 7.11563C17.7379 5.82402 16.469 4.81733 14.9843 4.22287C13.4997 3.6284 11.866 3.47286 10.2899 3.77592C8.7138 4.07897 7.26606 4.82701 6.12976 5.92544C4.99346 7.02386 4.21963 8.42334 3.90612 9.9469C3.59262 11.4705 3.75352 13.0497 4.36848 14.4848C4.98344 15.92 6.02485 17.1466 7.361 18.0097C8.69714 18.8727 10.268 19.3333 11.875 19.3333C13.8875 19.3333 15.7375 18.6204 17.1625 17.4363L17.5 17.7746V18.7292L23.75 24.7588L25.6125 22.9583L19.375 16.9167ZM11.875 16.9167C8.7625 16.9167 6.25 14.4879 6.25 11.4792C6.25 8.47042 8.7625 6.04167 11.875 6.04167C14.9875 6.04167 17.5 8.47042 17.5 11.4792C17.5 14.4879 14.9875 16.9167 11.875 16.9167Z" fill="black"/>
</g>
<defs>
<clipPath id="clip0_2_103">
<rect width="30" height="29" fill="white"/>
</clipPath>
</defs>
</svg>
