<svg width="28" height="28" viewBox="0 0 28 28" fill="none" xmlns="http://www.w3.org/2000/svg">
<path d="M14 25.6667C12.3861 25.6667 10.8694 25.3602 9.45 24.7473C8.03055 24.1344 6.79583 23.3034 5.74583 22.2542C4.69583 21.2042 3.86477 19.9694 3.25266 18.55C2.64055 17.1306 2.33411 15.6139 2.33333 14C2.33333 12.3861 2.63977 10.8694 3.25266 9.45C3.86555 8.03056 4.69661 6.79584 5.74583 5.74584C6.79583 4.69584 8.03055 3.86478 9.45 3.25267C10.8694 2.64056 12.3861 2.33411 14 2.33334C15.6139 2.33334 17.1305 2.63978 18.55 3.25267C19.9694 3.86556 21.2042 4.69661 22.2542 5.74584C23.3042 6.79584 24.1356 8.03056 24.7485 9.45C25.3614 10.8694 25.6674 12.3861 25.6667 14C25.6667 15.6139 25.3602 17.1306 24.7473 18.55C24.1344 19.9694 23.3034 21.2042 22.2542 22.2542C21.2042 23.3042 19.9694 24.1356 18.55 24.7485C17.1305 25.3614 15.6139 25.6674 14 25.6667ZM14 23.3333C16.6055 23.3333 18.8125 22.4292 20.6208 20.6208C22.4292 18.8125 23.3333 16.6056 23.3333 14C23.3333 11.3944 22.4292 9.1875 20.6208 7.37917C18.8125 5.57084 16.6055 4.66667 14 4.66667C11.3944 4.66667 9.18749 5.57084 7.37916 7.37917C5.57083 9.1875 4.66666 11.3944 4.66666 14C4.66666 16.6056 5.57083 18.8125 7.37916 20.6208C9.18749 22.4292 11.3944 23.3333 14 23.3333Z" fill="black"/>
</svg>
