<svg width="65" height="66" viewBox="0 0 65 66" fill="none" xmlns="http://www.w3.org/2000/svg">
<path fill-rule="evenodd" clip-rule="evenodd" d="M5.41666 32.9973C5.41666 17.809 17.5419 5.49725 32.5 5.49725C47.4581 5.49725 59.5833 17.809 59.5833 32.9973C59.5833 48.1855 47.4581 60.4973 32.5 60.4973C17.5419 60.4973 5.41666 48.1855 5.41666 32.9973ZM32.5 22C33.2183 22 33.9072 22.2897 34.4151 22.8055C34.923 23.3212 35.2083 24.0207 35.2083 24.75V30.25H40.625C41.3433 30.25 42.0322 30.5397 42.5401 31.0555C43.048 31.5712 43.3333 32.2707 43.3333 33C43.3333 33.7293 43.048 34.4288 42.5401 34.9445C42.0322 35.4603 41.3433 35.75 40.625 35.75H35.2083V41.25C35.2083 41.9794 34.923 42.6788 34.4151 43.1945C33.9072 43.7103 33.2183 44 32.5 44C31.7817 44 31.0928 43.7103 30.5849 43.1945C30.077 42.6788 29.7917 41.9794 29.7917 41.25V35.75H24.375C23.6567 35.75 22.9678 35.4603 22.4599 34.9445C21.952 34.4288 21.6667 33.7293 21.6667 33C21.6667 32.2707 21.952 31.5712 22.4599 31.0555C22.9678 30.5397 23.6567 30.25 24.375 30.25H29.7917V24.75C29.7917 24.0207 30.077 23.3212 30.5849 22.8055C31.0928 22.2897 31.7817 22 32.5 22Z" fill="black"/>
</svg>
