<svg width="23" height="23" viewBox="0 0 23 23" fill="none" xmlns="http://www.w3.org/2000/svg">
<path d="M9.925 13.525L7.50625 11.1062C7.3 10.9 7.0375 10.7969 6.71875 10.7969C6.4 10.7969 6.1375 10.9 5.93125 11.1062C5.725 11.3125 5.62188 11.575 5.62188 11.8938C5.62188 12.2125 5.725 12.475 5.93125 12.6813L9.1375 15.8875C9.3625 16.1125 9.625 16.225 9.925 16.225C10.225 16.225 10.4875 16.1125 10.7125 15.8875L17.0688 9.53125C17.275 9.325 17.3781 9.0625 17.3781 8.74375C17.3781 8.425 17.275 8.1625 17.0688 7.95625C16.8625 7.75 16.6 7.64687 16.2812 7.64687C15.9625 7.64687 15.7 7.75 15.4938 7.95625L9.925 13.525ZM11.5 22.75C9.94375 22.75 8.48125 22.4545 7.1125 21.8635C5.74375 21.2725 4.55313 20.4711 3.54063 19.4594C2.52813 18.4469 1.72675 17.2563 1.1365 15.8875C0.54625 14.5187 0.25075 13.0562 0.25 11.5C0.25 9.94375 0.5455 8.48125 1.1365 7.1125C1.7275 5.74375 2.52888 4.55313 3.54063 3.54063C4.55313 2.52813 5.74375 1.72675 7.1125 1.1365C8.48125 0.54625 9.94375 0.25075 11.5 0.25C13.0562 0.25 14.5187 0.5455 15.8875 1.1365C17.2563 1.7275 18.4469 2.52888 19.4594 3.54063C20.4719 4.55313 21.2736 5.74375 21.8646 7.1125C22.4556 8.48125 22.7507 9.94375 22.75 11.5C22.75 13.0562 22.4545 14.5187 21.8635 15.8875C21.2725 17.2563 20.4711 18.4469 19.4594 19.4594C18.4469 20.4719 17.2563 21.2736 15.8875 21.8646C14.5187 22.4556 13.0562 22.7507 11.5 22.75Z" fill="black"/>
</svg>
